<?xml version="1.0" encoding="UTF-8"?>
<svg version="1.1" xmlns="http://www.w3.org/2000/svg" width="2634" height="521">
<path d="M0 0 C130.35 0 260.7 0 395 0 C395 34.32 395 68.64 395 104 C307.88 104 220.76 104 131 104 C131 129.08 131 154.16 131 180 C140.70664063 179.97679687 150.41328125 179.95359375 160.4140625 179.9296875 C166.60286567 179.91945555 172.79166261 179.90974335 178.98046875 179.90234375 C188.78045779 179.8905315 198.58041214 179.8767369 208.38037109 179.84912109 C215.52141614 179.8290078 222.66243271 179.81624167 229.8035053 179.81182301 C233.57467325 179.80924554 237.34575987 179.8033129 241.1169014 179.78853989 C295.46477817 179.58432474 344.41688839 188.29091424 384.6875 227.625 C385.450625 228.40875 386.21375 229.1925 387 230 C387.495 230.44988281 387.99 230.89976562 388.5 231.36328125 C415.43129429 256.48668773 427.74261313 297.96002367 429.10058594 333.64306641 C430.38720711 378.39683357 418.1617821 422.08968368 387 455.21875 C358.81698 484.5399139 318.09496791 502.68732326 277.33262622 504.09191239 C274.31726805 504.12528856 271.30336038 504.12851765 268.28782654 504.12025452 C267.13950348 504.12111053 265.99118042 504.12196655 264.80805969 504.12284851 C261.63725495 504.12420931 258.46649163 504.1210972 255.29569177 504.11607273 C251.81763465 504.11168788 248.33957895 504.11316854 244.86151981 504.11389065 C238.11827202 504.11442107 231.3750376 504.1098158 224.63179323 504.10338932 C216.82748488 504.09617502 209.0231845 504.09539379 201.21887207 504.09460449 C180.62507927 504.08935918 160.03128943 504.07539801 139.4375 504.0625 C93.423125 504.041875 47.40875 504.02125 0 504 C0 337.68 0 171.36 0 0 Z M131 285 C131 322.95 131 360.9 131 400 C152.69596303 400.09020291 152.69596303 400.09020291 174.39195251 400.1507616 C182.15458723 400.16735021 189.91712465 400.18837117 197.6796875 400.22631836 C204.48780015 400.25958366 211.29580744 400.27687701 218.10399628 400.28463173 C220.69538783 400.29015487 223.28677393 400.30094003 225.87812042 400.31719017 C229.52075949 400.3391148 233.16296914 400.3419606 236.80566406 400.34057617 C238.39602982 400.35675491 238.39602982 400.35675491 240.01852417 400.3732605 C255.10926542 400.31160387 267.7165091 395.79611361 278.6796875 385.3828125 C290.38448178 373.36273756 295.6405979 359.16773455 296.375 342.5 C295.76110243 327.98969374 291.45852818 315.69985394 283 304 C282.2575 302.96875 281.515 301.9375 280.75 300.875 C272.53000296 292.28136673 260.59028058 285.47404974 248.51067638 284.87695217 C247.19020793 284.87833486 247.19020793 284.87833486 245.84306335 284.87974548 C244.31820564 284.87768349 244.31820564 284.87768349 242.76254272 284.87557983 C241.65843048 284.87917511 240.55431824 284.88277039 239.41674805 284.88647461 C238.24558945 284.88632858 237.07443085 284.88618256 235.86778259 284.8860321 C231.99907576 284.88672843 228.13041716 284.89450778 224.26171875 284.90234375 C221.57843443 284.90420892 218.89515278 284.90568156 216.21186829 284.90663147 C209.87256835 284.9097367 203.53328571 284.91793918 197.19399339 284.92798096 C189.26670204 284.94026502 181.33940787 284.94573101 173.41210938 284.95117188 C159.27472612 284.96090506 145.13738059 284.98093836 131 285 Z " fill="#FFFFFF" transform="translate(1011,8)"/>
<path d="M0 0 C130.02 0 260.04 0 394 0 C394 34.32 394 68.64 394 104 C307.21 104 220.42 104 131 104 C131 129.08 131 154.16 131 180 C140.63445312 179.97679687 150.26890625 179.95359375 160.1953125 179.9296875 C166.33854276 179.9194554 172.48176675 179.90974319 178.625 179.90234375 C188.35256081 179.89053207 198.08008668 179.87673914 207.80761719 179.84912109 C214.89592452 179.82900606 221.98420317 179.81624127 229.07253826 179.81182301 C232.81576081 179.80924582 236.5589014 179.8033151 240.30209732 179.78853989 C293.96588953 179.58529137 344.68471573 188.30540753 384.4921875 227.359375 C407.06893078 250.32087861 420.07284611 279.65652713 426 311 C426.22816406 312.20269531 426.45632813 313.40539062 426.69140625 314.64453125 C433.33757713 357.54254329 424.50606409 404.78745316 398.74243164 440.16430664 C393.39760331 447.28831668 387.37684783 453.79096396 381 460 C380.26535522 460.76751587 380.26535522 460.76751587 379.51586914 461.55053711 C375.34874968 465.86402108 370.9871233 469.46246355 366.0625 472.875 C365.32161133 473.3896582 364.58072266 473.90431641 363.81738281 474.43457031 C346.24314116 486.46691341 327.90181385 494.31731148 307.1875 499.375 C306.21111572 499.61371826 305.23473145 499.85243652 304.22875977 500.09838867 C286.67257553 504.13521607 269.50126106 504.27871104 251.57226562 504.22705078 C248.77688241 504.22531955 245.98150239 504.22661809 243.18611908 504.2277813 C236.49155275 504.22883767 229.79704079 504.21967124 223.10248837 504.20677864 C215.34664073 504.19229374 207.59082505 504.19078452 199.83496094 504.18920898 C179.38996544 504.17873801 158.94498188 504.15081552 138.5 504.125 C92.795 504.08375 47.09 504.0425 0 504 C0 337.68 0 171.36 0 0 Z M131 285 C131 322.95 131 360.9 131 400 C152.50954343 400.09020432 152.50954343 400.09020432 174.01911354 400.1507616 C181.71511044 400.16734958 189.41100919 400.18836904 197.10693359 400.22631836 C203.85669163 400.25958598 210.60634339 400.27687747 217.35617828 400.28463173 C219.92524129 400.29015448 222.4942988 400.30093888 225.06331635 400.31719017 C228.67482345 400.33911772 232.28589748 400.34196048 235.89746094 400.34057617 C236.94835403 400.351362 237.99924713 400.36214783 239.08198547 400.3732605 C254.0020916 400.31178861 267.67415854 395.83090675 278.375 385.25 C290.87374384 372.28833972 295.39868883 356.82806126 295.20703125 339.00390625 C294.61491962 323.92503894 288.91203383 310.03752724 278.37890625 299.18359375 C268.98464139 290.56061501 257.8396725 284.86606159 244.88102722 284.87974548 C243.87286957 284.87837082 242.86471191 284.87699615 241.82600403 284.87557983 C240.73124252 284.87917511 239.63648102 284.88277039 238.50854492 284.88647461 C237.34713989 284.88632858 236.18573486 284.88618256 234.98913574 284.8860321 C231.15289437 284.88672839 227.31670164 284.89450757 223.48046875 284.90234375 C220.81960467 284.90420894 218.15874328 284.90568156 215.49787903 284.90663147 C209.21170298 284.90973661 202.92554437 284.91793898 196.63937598 284.92798096 C188.77846755 284.94026532 180.91755627 284.94573108 173.05664062 284.95117188 C159.03774684 284.96090487 145.0188911 284.98093821 131 285 Z " fill="#FFFFFF" transform="translate(1472,8)"/>
<path d="M0 0 C1.10294907 -0.00570007 2.20589813 -0.01140015 3.3422699 -0.01727295 C5.67275042 -0.0266753 8.00324396 -0.03323785 10.33374023 -0.03710938 C13.80933603 -0.0467045 17.28431093 -0.07772826 20.75976562 -0.109375 C81.76095647 -0.39882826 142.46176734 18.96827236 190.30859375 57.203125 C190.8902832 57.6676709 191.47197266 58.1322168 192.07128906 58.61083984 C207.48236797 71.06703097 221.64158208 85.17378693 233.30859375 101.203125 C234.16508441 102.35307331 235.02185808 103.50281089 235.87890625 104.65234375 C241.92014373 112.84558537 247.25481323 121.37243137 252.30859375 130.203125 C252.96472656 131.32589844 253.62085937 132.44867188 254.296875 133.60546875 C275.85030365 172.00426247 284.56464954 216.54133839 284.49609375 260.203125 C284.49518738 261.28145096 284.49518738 261.28145096 284.4942627 262.38156128 C284.46624071 274.74421209 283.94857857 286.94045998 282.30859375 299.203125 C282.18500488 300.14349609 282.06141602 301.08386719 281.93408203 302.05273438 C275.41101715 349.77784907 255.81925661 394.70182309 224.30859375 431.203125 C223.63957031 431.98300781 222.97054687 432.76289063 222.28125 433.56640625 C212.23764971 444.99404085 201.46154717 456.02193625 189.30859375 465.203125 C188.68710449 465.67927246 188.06561523 466.15541992 187.42529297 466.64599609 C142.65095086 500.77647325 86.17268527 521.01544969 29.73046875 521.44140625 C28.65318008 521.4512001 27.57589142 521.46099396 26.46595764 521.47108459 C3.12181585 521.63962262 -19.70198216 521.65334646 -42.69140625 517.203125 C-43.81353516 516.98881836 -44.93566406 516.77451172 -46.09179688 516.55371094 C-69.28500745 511.97241834 -91.47239037 504.61512103 -112.69140625 494.203125 C-113.98473877 493.57083984 -113.98473877 493.57083984 -115.30419922 492.92578125 C-136.0927746 482.65530311 -155.37466091 470.01954378 -172.44140625 454.265625 C-174.41930183 452.45255406 -176.44337442 450.73273486 -178.50390625 449.015625 C-190.10323656 438.8370962 -199.6809891 426.6627038 -208.69140625 414.203125 C-209.13581055 413.58888672 -209.58021484 412.97464844 -210.03808594 412.34179688 C-238.19091332 372.91485492 -254.66246788 323.12106738 -254.89453125 274.60546875 C-254.90154556 273.62147598 -254.90855988 272.63748322 -254.91578674 271.62367249 C-254.93320731 268.46260965 -254.9396397 265.30173409 -254.94140625 262.140625 C-254.94208099 261.06143799 -254.94275574 259.98225098 -254.94345093 258.87036133 C-254.92776854 243.10589901 -254.56236131 227.74626468 -251.69140625 212.203125 C-251.51448242 211.20571289 -251.33755859 210.20830078 -251.15527344 209.18066406 C-242.9290529 163.70202512 -223.16418921 119.3751103 -191.05859375 85.6875 C-189.07218562 83.60275483 -187.21721085 81.47890715 -185.37890625 79.265625 C-141.00692803 28.64407238 -66.25640591 0.27357383 0 0 Z M-32.69140625 112.203125 C-33.72523438 112.57179688 -34.7590625 112.94046875 -35.82421875 113.3203125 C-48.85481269 118.35880882 -60.22399671 126.03591256 -70.69140625 135.203125 C-71.47 135.84894531 -72.24859375 136.49476563 -73.05078125 137.16015625 C-79.05823969 142.24578055 -83.88852901 147.98611515 -88.69140625 154.203125 C-89.33722656 154.99847656 -89.98304688 155.79382813 -90.6484375 156.61328125 C-113.34089527 185.77609358 -122.19081296 224.01274998 -122.00390625 260.328125 C-122.0017511 261.08870209 -121.99959595 261.84927917 -121.99737549 262.63290405 C-121.82975033 299.69502132 -112.22098557 337.7809206 -88.69140625 367.203125 C-88.04196045 368.02079346 -88.04196045 368.02079346 -87.37939453 368.85498047 C-65.48110954 396.1801986 -34.83850753 412.86419171 0.04272461 417.00683594 C36.17685754 420.13708514 70.52245786 411.03049888 98.62744141 387.65283203 C129.12303681 361.35558464 145.4286074 323.70533029 150.30859375 284.203125 C150.42074219 283.32527344 150.53289063 282.44742188 150.6484375 281.54296875 C155.18782199 238.32554106 145.79608635 189.78435481 118.59375 154.9765625 C114.97103294 150.5797606 111.21854608 146.34589411 107.30859375 142.203125 C106.62410156 141.45417969 105.93960938 140.70523438 105.234375 139.93359375 C84.64574206 118.20326212 54.30382435 105.42658253 24.5612793 104.07861328 C4.48938579 103.54051073 -13.77175718 105.4083263 -32.69140625 112.203125 Z " fill="#FFFFFF" transform="translate(2165.69140625,-0.203125)"/>
<path d="M0 0 C1.09308472 -0.00794586 2.18616943 -0.01589172 3.31237793 -0.02407837 C50.01575811 -0.28445571 95.67108072 10.34643574 136.9375 32.375 C137.90647217 32.88450195 137.90647217 32.88450195 138.89501953 33.40429688 C149.86957209 39.20625082 160.00637435 45.93660327 169.9375 53.375 C170.58122559 53.85356445 171.22495117 54.33212891 171.88818359 54.82519531 C189.50502508 68.07508327 206.20776806 84.34552182 218.9375 102.375 C219.38061523 102.98972168 219.82373047 103.60444336 220.28027344 104.23779297 C247.33317842 141.85322436 262.53876913 183.39376382 267.9375 229.375 C268.0921875 230.63086914 268.0921875 230.63086914 268.25 231.91210938 C269.25561276 241.19966149 269.18125647 250.54409588 269.1875 259.875 C269.18851212 261.23659744 269.18851212 261.23659744 269.18954468 262.6257019 C269.12686299 315.92094911 255.32988929 368.69017575 223.9375 412.375 C223.19886719 413.40753906 222.46023438 414.44007813 221.69921875 415.50390625 C219.49650396 418.5047628 217.23851235 421.44892487 214.9375 424.375 C214.18855469 425.33019531 213.43960937 426.28539062 212.66796875 427.26953125 C199.09047299 443.92601817 183.5818802 459.09171277 165.9375 471.375 C165.30150879 471.82375488 164.66551758 472.27250977 164.01025391 472.73486328 C154.69025588 479.27685417 144.97434327 485.00852256 134.9375 490.375 C134.31327148 490.71241211 133.68904297 491.04982422 133.04589844 491.39746094 C109.38143809 504.09032952 83.83694354 512.01084495 57.5625 517.1875 C56.57854248 517.3824707 55.59458496 517.57744141 54.58081055 517.77832031 C36.55900254 521.12778033 18.66823632 521.74907011 0.375 521.6875 C-0.77613281 521.68534485 -1.92726563 521.6831897 -3.11328125 521.68096924 C-19.61548021 521.63135021 -35.78773689 521.35600738 -52.0625 518.375 C-53.12484863 518.19227539 -54.18719727 518.00955078 -55.28173828 517.82128906 C-105.63538688 508.95718385 -150.63024505 486.95265432 -189.0625 453.375 C-189.9803125 452.5809375 -190.898125 451.786875 -191.84375 450.96875 C-196.32601156 447.02651995 -200.46843643 443.00436105 -204.30859375 438.43359375 C-205.51408939 437.01868016 -206.75921984 435.63689086 -208.03515625 434.28515625 C-243.81140625 396.30129736 -263.15066584 344.52054794 -269.0625 293.375 C-269.15821289 292.60470459 -269.25392578 291.83440918 -269.35253906 291.04077148 C-270.41285917 281.33542212 -270.30632053 271.56360064 -270.3125 261.8125 C-270.31317474 260.85580414 -270.31384949 259.89910828 -270.31454468 258.91342163 C-270.29735759 243.54158177 -269.68740174 228.55589515 -267.0625 213.375 C-266.89089355 212.37597656 -266.71928711 211.37695312 -266.54248047 210.34765625 C-258.1653661 163.33400277 -237.46392694 119.02585077 -204.60546875 84.12890625 C-202.81845501 82.19366095 -201.13111286 80.26909201 -199.46875 78.234375 C-197.52145271 75.92037887 -195.67795331 73.99578184 -193.375 72.0625 C-191.20376073 70.21975081 -189.06397129 68.37638801 -186.9921875 66.421875 C-174.47482516 54.64595921 -160.10848456 44.64198724 -145.0625 36.375 C-143.7943042 35.67528076 -143.7943042 35.67528076 -142.50048828 34.96142578 C-114.05109644 19.39402258 -84.06814562 8.86168211 -52.0625 3.375 C-51.15951172 3.21128906 -50.25652344 3.04757812 -49.32617188 2.87890625 C-32.99024371 0.03685405 -16.53096695 0.06293515 0 0 Z M-91.0625 140.375 C-92.29226563 141.51001953 -92.29226563 141.51001953 -93.546875 142.66796875 C-109.25327548 157.6183158 -119.6495656 177.19983601 -127.0625 197.375 C-127.29952637 198.01872559 -127.53655273 198.66245117 -127.78076172 199.32568359 C-143.7317243 243.74017683 -140.55105907 296.8891681 -121.03076172 339.63427734 C-114.09691762 354.08322686 -105.15791938 366.80050379 -94.0625 378.375 C-93.30582031 379.19484375 -92.54914063 380.0146875 -91.76953125 380.859375 C-69.49723214 404.25800571 -38.05798694 416.41603604 -6.1328125 417.65625 C29.70704332 418.47808115 62.13412134 407.79744367 88.546875 383.0234375 C96.75842031 375.14771508 103.88736362 367.01707831 109.9375 357.375 C110.32099609 356.7660791 110.70449219 356.1571582 111.09960938 355.52978516 C136.58269196 314.32786646 141.91724635 262.164611 131.24365234 215.47973633 C124.80202174 189.00905777 112.69562676 163.2571531 93.35742188 143.81835938 C92.04670352 142.48600606 90.778921 141.11177515 89.515625 139.734375 C69.34061103 118.20533325 38.48405254 105.63958836 9.29296875 104.24902344 C-29.24353182 103.18006854 -62.86167953 113.34143203 -91.0625 140.375 Z " fill="#FFFFFF" transform="translate(709.0625,-0.375)"/>
<path d="M0 0 C66.6084375 -0.0928125 66.6084375 -0.0928125 134.5625 -0.1875 C148.55342041 -0.21481201 162.54434082 -0.24212402 176.95922852 -0.27026367 C194.12097168 -0.28381348 194.12097168 -0.28381348 202.17002869 -0.28633118 C207.75905706 -0.28911189 213.34799393 -0.30004398 218.93699646 -0.31672668 C225.40250022 -0.3359967 231.86791723 -0.3444678 238.33344984 -0.34033485 C241.63184642 -0.33854885 244.92989668 -0.34286095 248.22828209 -0.35764539 C268.25408409 -0.44315686 288.06263208 0.63411032 307.5 5.8125 C308.99466797 6.20042725 308.99466797 6.20042725 310.51953125 6.59619141 C318.65582503 8.77404825 326.3420801 11.46163076 334 15 C334.63808594 15.29100586 335.27617187 15.58201172 335.93359375 15.88183594 C373.95238703 33.39049074 402.46938748 63.91601582 417.21484375 102.984375 C432.78871067 145.86821842 433.36215262 198.15339058 414 240 C408.61580625 251.27961397 402.95965911 262.30150763 395 272 C393.77216797 273.54494141 393.77216797 273.54494141 392.51953125 275.12109375 C365.43102652 308.63653745 324.62289648 327.54964561 282.31246948 332.60153198 C266.69494322 334.2460838 251.09915545 334.26580715 235.4158783 334.20256042 C232.05907639 334.19095027 228.70227849 334.19062249 225.34545898 334.18920898 C215.60528801 334.17882112 205.86514208 334.15089915 196.125 334.125 C163.393125 334.063125 163.393125 334.063125 130 334 C130 390.1 130 446.2 130 504 C87.1 504 44.2 504 0 504 C0 337.68 0 171.36 0 0 Z M130 104 C130 145.25 130 186.5 130 229 C148.7275 229.061875 167.455 229.12375 186.75 229.1875 C195.59184082 229.22846802 195.59184082 229.22846802 204.61230469 229.27026367 C209.93569685 229.28030226 209.93569685 229.28030226 215.25909424 229.28633118 C217.61441757 229.29091208 219.96973423 229.30140929 222.32501221 229.31672668 C225.9104824 229.3388616 229.49552585 229.34171215 233.08105469 229.34057617 C234.11523907 229.3513705 235.14942345 229.36216482 236.21494675 229.37328625 C251.86689283 229.30742791 265.51407688 224.08370722 276.8203125 213.2109375 C277.53960937 212.48132813 278.25890625 211.75171875 279 211 C279.57492187 210.43539062 280.14984375 209.87078125 280.7421875 209.2890625 C289.72241689 199.75047688 294.19204699 185.90276478 295 173 C295.07927734 171.84177734 295.07927734 171.84177734 295.16015625 170.66015625 C295.7618904 153.26219053 291.01548189 136.71573819 279.5625 123.4375 C267.14974325 110.79134098 252.70646214 104.08765989 234.86193848 103.87974548 C232.9060067 103.87686278 230.95006191 103.87944918 228.99414062 103.88647461 C227.90283592 103.88635407 226.81153122 103.88623354 225.68715668 103.88610935 C222.17683326 103.88685196 218.66656384 103.89445038 215.15625 103.90234375 C212.98014349 103.90381519 210.80403662 103.90483466 208.62792969 103.90539551 C200.58528104 103.91062498 192.54263998 103.92458625 184.5 103.9375 C166.515 103.958125 148.53 103.97875 130 104 Z " fill="#FFFFFF" transform="translate(0,8)"/>
<path d="M0 0 C1.03769531 0.350625 2.07539063 0.70125 3.14453125 1.0625 C25.09877831 9.34929312 41.59978252 25.98519669 51.34375 47.08984375 C60.85047783 68.85100185 60.72403568 93.65335053 52.25 115.6875 C43.75979916 136.40306023 26.97108264 153.002611 6.80859375 162.50390625 C-15.73301055 171.76947366 -41.04387292 171.77860168 -63.57641602 162.5378418 C-74.10003321 157.93107326 -82.85894035 151.00694005 -91 143 C-91.77214844 142.24074219 -92.54429687 141.48148438 -93.33984375 140.69921875 C-110.47788723 122.79948445 -115.70826619 100.1082571 -115.31640625 75.97265625 C-115.02312601 68.20870609 -113.5217926 61.34969817 -111 54 C-110.4740625 52.44152344 -110.4740625 52.44152344 -109.9375 50.8515625 C-101.64075717 28.89976376 -85.01815331 12.40176417 -63.91015625 2.65625 C-44.00831719 -6.03820304 -20.55587481 -7.12541156 0 0 Z M-82.00390625 34.61328125 C-94.40364557 49.43958404 -101.63205093 68.56839367 -100 88 C-97.2605121 107.73287379 -88.75069657 125.85445844 -72.921875 138.44921875 C-56.9549273 150.16325434 -38.72011988 155.7603562 -18.875 153.3125 C0.41369058 150.05820695 16.76461927 140.63949993 28.86328125 125.15234375 C35.07637112 115.98604845 39.86019806 105.90192197 42 95 C42.3403125 93.2675 42.3403125 93.2675 42.6875 91.5 C44.43217642 71.95962409 39.22806443 52.90309667 26.96875 37.4375 C14.25490016 22.75389877 -2.36791096 12.69242147 -22 11 C-45.17625275 9.66915075 -66.02592463 17.81441251 -82.00390625 34.61328125 Z " fill="#FFFFFF" transform="translate(2576,13)"/>
<path d="M0 0 C7.693125 -0.0825 15.38625 -0.165 23.3125 -0.25 C25.71829346 -0.28641602 28.12408691 -0.32283203 30.6027832 -0.36035156 C32.54377352 -0.37205142 34.48477378 -0.38224016 36.42578125 -0.390625 C37.89597717 -0.4213208 37.89597717 -0.4213208 39.39587402 -0.45263672 C49.54414323 -0.45767746 58.23192558 2.4630656 66.05859375 9.015625 C72.63931129 15.74199222 75.00313668 24.19722139 75.3125 33.375 C75.09468182 42.63867922 72.48003328 50.26614053 66 57 C63.73952234 58.86557494 61.47627877 60.41518158 59 62 C62.8806994 69.28649944 67.31151513 76.0644353 71.97851562 82.86523438 C72.49736328 83.63029297 73.01621094 84.39535156 73.55078125 85.18359375 C74.02169189 85.86993896 74.49260254 86.55628418 74.9777832 87.26342773 C76 89 76 89 76 91 C56.61175601 92.78826038 56.61175601 92.78826038 51.0390625 88.97265625 C49.00688331 86.08198503 47.51603629 83.1898327 46 80 C44.56646342 77.76182051 43.03060742 75.61243529 41.5 73.4375 C38 68.26153846 38 68.26153846 38 66 C32.39 66 26.78 66 21 66 C21 74.25 21 82.5 21 91 C14.07 91 7.14 91 0 91 C0 60.97 0 30.94 0 0 Z M21 18 C21 27.9 21 37.8 21 48 C26.259375 48.0928125 26.259375 48.0928125 31.625 48.1875 C32.71893066 48.21481201 33.81286133 48.24212402 34.93994141 48.27026367 C41.69277131 48.32786899 46.12012704 47.56853534 51.3125 42.9375 C53.74542133 38.70241472 54.31758108 34.85972912 54 30 C52.78825887 25.97891492 51.01130197 22.97969878 48 20.0625 C44.37832369 18.13848446 41.07709526 17.87757869 37.015625 17.90234375 C36.17290039 17.90484131 35.33017578 17.90733887 34.46191406 17.90991211 C33.40198242 17.91901611 32.34205078 17.92812012 31.25 17.9375 C26.17625 17.9684375 26.17625 17.9684375 21 18 Z " fill="#FFFFFF" transform="translate(2513,48)"/>
</svg>
